<svg xmlns="http://www.w3.org/2000/svg" viewBox="0 0 24 24" width="32" height="32" fill="none">
    <circle cx="12" cy="12" r="11" fill="#1DB954" stroke="#1DB954" stroke-width="1.5" />
    <path d="M6 7C6 5.89543 6 5.3428 6.29289 5.04983C6.58579 4.75686 7.13843 4.75686 8.243 5.04983C9.34757 5.3428 10 5.89543 10 7V17C10 18.1046 10 18.6572 9.70711 18.9502C9.41421 19.2431 8.86157 19.2431 7.757 18.9502C6.65243 18.6572 6 18.1046 6 17V7Z" fill="#000000" stroke="#1DB954" stroke-width="1.5" />
    <path d="M14 7C14 5.89543 14 5.3428 14.2929 5.04983C14.5858 4.75686 15.1384 4.75686 16.243 5.04983C17.3476 5.3428 18 5.89543 18 7V17C18 18.1046 18 18.6572 17.7071 18.9502C17.4142 19.2431 16.8616 19.2431 15.757 18.9502C14.6524 18.6572 14 18.1046 14 17V7Z" fill="#000000" stroke="#1DB954" stroke-width="1.5" />
</svg>




